Coordinates
version=1
nRows=16
nColumns=63
inDegrees=yes

Units are S.I. units (second, meters, Newtons, ...)
If the header above contains a line with 'inDegrees', this indicates whether rotational values are in degrees (yes) or radians (no).

endheader
time	pelvis_tilt	pelvis_list	pelvis_rotation	pelvis_tx	pelvis_ty	pelvis_tz	hip_flexion_r	hip_adduction_r	hip_rotation_r	knee_angle_r	knee_angle_r_beta	ankle_angle_r	subtalar_angle_r	mtp_angle_r	hip_flexion_l	hip_adduction_l	hip_rotation_l	knee_angle_l	knee_angle_l_beta	ankle_angle_l	subtalar_angle_l	mtp_angle_l	L5_S1_Flex_Ext	L5_S1_Lat_Bending	L5_S1_axial_rotation	L4_L5_Flex_Ext	L4_L5_Lat_Bending	L4_L5_axial_rotation	L3_L4_Flex_Ext	L3_L4_Lat_Bending	L3_L4_axial_rotation	L2_L3_Flex_Ext	L2_L3_Lat_Bending	L2_L3_axial_rotation	L1_L2_Flex_Ext	L1_L2_Lat_Bending	L1_L2_axial_rotation	L1_T12_Flex_Ext	L1_T12_Lat_Bending	L1_T12_axial_rotation	Abs_r3	Abs_r2	Abs_r1	Abs_t1	Abs_t2	neck_flexion	neck_bending	neck_rotation	arm_flex_r	arm_add_r	arm_rot_r	elbow_flex_r	pro_sup_r	wrist_flex_r	wrist_dev_r	arm_flex_l	arm_add_l	arm_rot_l	elbow_flex_l	pro_sup_l	wrist_flex_l	wrist_dev_l
4.276596	0.802452	-10.621275	92.436148	0.211046	1.009103	0.446621	1.381013	2.203370	-13.651156	10.648203	0.185846	29.033223	8.828013	0.000000	-1.920781	0.233128	4.486568	4.298242	0.075018	22.428151	-9.259774	0.000000	0.159686	-0.000643	-0.657988	0.296552	-0.000855	-0.699112	0.262347	-0.001564	-0.699112	0.182505	-0.001564	-0.575739	0.148284	-0.001311	-0.534615	0.091244	-0.000996	-0.493491	1.140618	-0.007275	-3.659529	0.000000	0.000000	27.620917	2.406779	8.666259	12.937382	-10.210607	77.926727	45.668035	82.624013	-5.641594	-8.493588	9.094407	-8.448508	56.064283	56.497191	73.677423	2.326910	18.082540
4.297872	0.851564	-10.804423	92.118095	0.211596	1.009073	0.447877	1.849011	2.298145	-12.876179	10.897038	0.190189	28.821552	7.834485	0.000000	-1.676689	0.177447	4.211794	4.310752	0.075237	22.277959	-9.290554	0.000000	0.158447	0.015645	-0.663933	0.294251	0.020807	-0.705429	0.260312	0.038039	-0.705429	0.181089	0.038039	-0.580942	0.147134	0.031903	-0.539446	0.090536	0.024234	-0.497950	1.131769	0.176976	-3.692599	0.000000	0.000000	27.699049	2.373688	8.573434	12.804867	-10.220406	77.089031	45.716675	83.337038	-4.961984	-8.025408	9.003253	-8.378631	55.874396	56.474508	74.430580	1.724945	17.490059
4.319149	0.916082	-10.976825	91.821695	0.212065	1.009061	0.449037	2.285395	2.409538	-12.126363	11.123543	0.194142	28.561944	6.803799	0.000000	-1.438487	0.109129	3.964131	4.339790	0.075744	22.148801	-9.335138	0.000000	0.157492	0.033437	-0.668685	0.292478	0.044471	-0.710478	0.258744	0.081298	-0.710478	0.179998	0.081298	-0.585100	0.146247	0.068184	-0.543307	0.089991	0.051794	-0.501514	1.124949	0.378244	-3.719027	0.000000	0.000000	27.753159	2.346316	8.566352	12.639302	-10.244908	76.242857	45.769144	83.812475	-4.148274	-7.607762	8.848376	-8.298258	55.600976	56.430215	75.131212	1.321381	17.048837
4.340426	0.989948	-11.120611	91.546319	0.212471	1.009127	0.450147	2.662905	2.533936	-11.410697	11.306569	0.197337	28.259389	5.785110	0.000000	-1.237040	0.037831	3.871008	4.351693	0.075951	22.000777	-9.568879	0.000000	0.154990	0.050142	-0.663200	0.287832	0.066688	-0.704650	0.254633	0.121914	-0.704650	0.177138	0.121914	-0.580300	0.143924	0.102249	-0.538850	0.088561	0.077669	-0.497400	1.107077	0.567212	-3.688520	0.000000	0.000000	27.777026	2.310117	8.491897	12.443414	-10.274067	75.348408	45.817174	84.095863	-3.180982	-7.153672	8.705265	-8.218476	55.395528	56.332113	75.694345	1.038765	16.702155
4.361702	1.073447	-11.238844	91.362707	0.212706	1.009263	0.451212	2.973696	2.672508	-10.783670	11.429715	0.199486	27.935885	4.801421	0.000000	-1.040277	-0.048419	3.778824	4.389332	0.076608	21.925381	-9.674844	0.000000	0.152584	0.065918	-0.672031	0.283363	0.087671	-0.714033	0.250680	0.160273	-0.714033	0.174388	0.160273	-0.588027	0.141689	0.134420	-0.546025	0.087186	0.102107	-0.504023	1.089890	0.745675	-3.737635	0.000000	0.000000	27.783894	2.282503	8.457461	12.310055	-10.284340	74.675414	45.826373	84.084765	-2.128907	-6.736019	8.490425	-8.125548	55.044509	56.206435	76.200981	0.945647	16.486401
4.382979	1.160524	-11.326641	91.239113	0.212809	1.009482	0.452229	3.212047	2.815683	-10.227842	11.486841	0.200483	27.608881	3.888477	0.000000	-0.862770	-0.138469	3.689703	4.434934	0.077404	21.923378	-9.698404	0.000000	0.150025	0.079445	-0.670789	0.278611	0.105662	-0.712713	0.246476	0.193162	-0.712713	0.171463	0.193162	-0.586940	0.139313	0.162004	-0.545016	0.085724	0.123060	-0.503092	1.071612	0.898696	-3.730726	0.000000	0.000000	27.794805	2.219342	8.370035	12.167642	-10.309910	74.011084	45.841839	84.146017	-1.152667	-6.252751	8.355822	-8.048630	54.957250	56.038192	76.376531	0.824661	16.285197
4.404255	1.244392	-11.387424	91.197994	0.212755	1.009782	0.453201	3.369232	2.952453	-9.800071	11.452566	0.199885	27.297396	3.116757	0.000000	-0.687664	-0.233477	3.496007	4.508232	0.078683	22.040366	-9.460206	0.000000	0.148200	0.089434	-0.678162	0.275221	0.118947	-0.720547	0.243477	0.217449	-0.720547	0.169377	0.217449	-0.593392	0.137618	0.182373	-0.551007	0.084681	0.138533	-0.508621	1.058574	1.011692	-3.771733	0.000000	0.000000	27.814044	2.211264	8.305864	12.145994	-10.300364	73.734827	45.817732	84.338228	-0.444273	-5.766023	8.199769	-7.970479	54.840201	55.851583	76.488058	0.832834	16.143234
4.425532	1.316855	-11.432502	91.196428	0.212590	1.010149	0.454159	3.498428	3.058994	-9.483555	11.408718	0.199120	27.033324	2.510509	0.000000	-0.527289	-0.319053	3.188080	4.564766	0.079670	22.241523	-9.014687	0.000000	0.148371	0.096125	-0.683457	0.275539	0.127847	-0.726173	0.243758	0.233719	-0.726173	0.169573	0.233719	-0.598025	0.137777	0.196019	-0.555309	0.084779	0.148898	-0.512593	1.059796	1.087391	-3.801181	0.000000	0.000000	27.835707	2.236473	8.334202	12.255619	-10.267394	73.861917	45.744432	84.542007	0.020545	-5.274917	8.049034	-7.891312	54.734794	55.666006	76.552734	0.913898	16.071055
4.446809	1.380532	-11.454122	91.278091	0.212296	1.010562	0.455054	3.541550	3.155538	-9.257919	11.264870	0.196609	26.777055	2.011680	0.000000	-0.371768	-0.402400	2.781620	4.644851	0.081068	22.541526	-8.325638	0.000000	0.149601	0.098840	-0.699289	0.277825	0.131457	-0.742995	0.245780	0.240320	-0.742995	0.170979	0.240320	-0.611878	0.138920	0.201555	-0.568173	0.085482	0.153104	-0.524467	1.068588	1.118100	-3.889238	0.000000	0.000000	27.860631	2.395466	8.464167	12.521760	-10.196863	74.458255	45.638501	84.954129	0.086449	-4.742855	7.841980	-7.801501	54.465217	55.498534	76.830957	1.097307	15.990489
4.468085	1.429699	-11.464289	91.363257	0.211972	1.010979	0.455943	3.547678	3.237230	-8.922563	11.088575	0.193532	26.517614	1.419582	0.000000	-0.231848	-0.474547	2.237181	4.717783	0.082341	22.906004	-7.453205	0.000000	0.152347	0.098361	-0.708011	0.282924	0.130820	-0.752261	0.250291	0.239154	-0.752261	0.174117	0.239154	-0.619509	0.141469	0.200577	-0.575259	0.087051	0.152361	-0.531008	1.088199	1.112675	-3.937744	0.000000	0.000000	27.882115	2.650402	8.727045	12.938435	-10.096722	75.464401	45.457847	85.278210	0.026066	-4.251284	7.622005	-7.696457	54.103153	55.358792	77.189018	1.233202	15.934630
4.489362	1.466072	-11.479936	91.531218	0.211508	1.011344	0.456844	3.518387	3.284769	-8.805063	10.865427	0.189637	26.313836	1.108576	0.000000	-0.068344	-0.530790	1.695064	4.813177	0.084006	23.313452	-6.486913	0.000000	0.158343	0.094619	-0.725096	0.294058	0.125844	-0.770414	0.260141	0.230058	-0.770414	0.180970	0.230058	-0.634459	0.147037	0.192948	-0.589140	0.090477	0.146565	-0.543822	1.131025	1.070354	-4.032764	0.000000	0.000000	27.900517	2.994464	9.071051	13.471183	-9.971820	76.805613	45.226319	85.654349	-0.281945	-3.786963	7.376568	-7.567150	53.580972	55.235774	77.512848	1.378953	15.895108
4.510638	1.490907	-11.504494	91.756379	0.210957	1.011644	0.457753	3.457214	3.309972	-8.795101	10.588466	0.184804	26.150048	0.979864	0.000000	0.116738	-0.572159	1.141432	4.925207	0.085961	23.750073	-5.453326	0.000000	0.166915	0.087783	-0.743034	0.309978	0.116752	-0.789473	0.274225	0.213436	-0.789473	0.190767	0.213436	-0.650155	0.154997	0.179008	-0.603715	0.095375	0.135976	-0.557275	1.192259	0.993022	-4.132531	0.000000	0.000000	27.917017	3.399273	9.429683	14.050769	-9.823926	78.277662	44.920910	85.910453	-0.606033	-3.361177	7.128333	-7.415139	52.937505	55.131987	77.767330	1.450464	15.848248
4.531915	1.512799	-11.544670	92.073817	0.210265	1.011854	0.458682	3.379184	3.318609	-8.925901	10.275023	0.179333	26.035778	1.034496	0.000000	0.340851	-0.604616	0.629927	5.066068	0.088420	24.213375	-4.379833	0.000000	0.178136	0.078536	-0.764918	0.330817	0.104453	-0.812726	0.292660	0.190953	-0.812726	0.203592	0.190953	-0.669303	0.165417	0.160151	-0.621496	0.101787	0.121653	-0.573689	1.272409	0.888417	-4.254246	0.000000	0.000000	27.933736	3.825504	9.691141	14.640260	-9.669467	79.816836	44.561933	86.007684	-1.018231	-3.011874	6.905958	-7.239825	52.213031	55.035604	77.960087	1.480708	15.756388
4.553191	1.529483	-11.591151	92.486603	0.209445	1.011974	0.459631	3.272608	3.303381	-9.276089	9.924674	0.173218	25.983720	1.374204	0.000000	0.585292	-0.621490	0.222245	5.217910	0.091070	24.666451	-3.358973	0.000000	0.189434	0.066870	-0.795336	0.351799	0.088938	-0.845044	0.311222	0.162589	-0.845044	0.216505	0.162589	-0.695919	0.175909	0.136362	-0.646210	0.108243	0.103582	-0.596502	1.353111	0.756451	-4.423419	0.000000	0.000000	27.951447	4.294539	9.872663	15.266061	-9.508622	81.501946	44.164535	85.992070	-1.648543	-2.803061	6.749449	-7.069899	51.484458	54.960470	77.993815	1.526634	15.672570
4.574468	1.547032	-11.651556	92.920139	0.208630	1.011989	0.460521	3.151756	3.295118	-9.550683	9.543464	0.166565	25.953747	1.688628	0.000000	0.853303	-0.639670	-0.282889	5.396010	0.094178	25.154720	-2.192897	0.000000	0.202751	0.053233	-0.813349	0.376530	0.070800	-0.864184	0.333100	0.129430	-0.864184	0.231725	0.129430	-0.711681	0.188275	0.108552	-0.660846	0.115852	0.082458	-0.610012	1.448233	0.602180	-4.523605	0.000000	0.000000	27.972918	4.668955	9.779805	15.799447	-9.350332	82.980605	43.755436	85.913180	-2.225347	-2.596093	6.671561	-6.895210	50.857903	54.873032	78.016665	1.478579	15.447435
4.595745	1.565582	-11.718811	93.414107	0.207758	1.011893	0.461323	3.008575	3.278136	-9.975434	9.146078	0.159629	25.981569	2.189639	0.000000	1.123583	-0.646263	-0.606104	5.570139	0.097217	25.592597	-1.197359	0.000000	0.216750	0.038552	-0.836505	0.402526	0.051274	-0.888787	0.356098	0.093735	-0.888787	0.247723	0.093735	-0.731942	0.201274	0.078615	-0.679661	0.123851	0.059717	-0.627379	1.548223	0.436105	-4.652391	0.000000	0.000000	27.996765	5.040096	9.573696	16.277036	-9.197692	84.357683	43.348518	85.774243	-2.804691	-2.565150	6.645937	-6.737213	50.298943	54.803457	77.785085	1.458222	15.247371
